<?xml version="1.0" ?><svg data-name="Layer 4" id="Layer_4" viewBox="0 0 512 512" xmlns="http://www.w3.org/2000/svg"><defs><style>.cls-1{fill:#aed848;}.cls-2{fill:#dbef89;}.cls-3{fill:#ebf4b8;}.cls-4{fill:#4a4e59;}</style></defs><polygon class="cls-1" points="406.49 154.78 304.6 104.09 106.31 123.59 106.31 354.55 208.22 409.83 406.49 382.09 406.49 154.78"/><polygon class="cls-2" points="106.31 129.43 208.22 174.43 204.18 407.64 109.14 356.08 106.31 129.43"/><polygon class="cls-3" points="116.93 125.03 302.48 105.79 397.69 152.75 208.22 168.73 116.93 125.03"/><path class="cls-4" d="M208.22,419.83a10,10,0,0,1-4.77-1.21L101.54,363.34a10,10,0,0,1-5.23-8.79v-231a10,10,0,0,1,9-10l198.3-19.49a10,10,0,0,1,5.43,1L411,145.83a10,10,0,0,1,5.54,9v227.3a10,10,0,0,1-8.61,9.91L209.6,419.74A10.66,10.66,0,0,1,208.22,419.83Zm-91.91-71.24,93.78,50.88,186.4-26.08V161l-93.77-46.65L116.31,132.65Z"/><path class="cls-4" d="M208.22,419.83a10,10,0,0,1-10-10V171a10,10,0,0,1,9.18-10l198.28-16.18a10,10,0,1,1,1.63,19.93L218.22,180.18V409.83A10,10,0,0,1,208.22,419.83Z"/><path class="cls-4" d="M208.21,181A9.88,9.88,0,0,1,204,180L102.09,132.65a10,10,0,0,1,8.43-18.13L212.43,161.9A10,10,0,0,1,208.21,181Z"/></svg>